<?xml version="1.0" standalone="no"?>
<!DOCTYPE svg PUBLIC "-//W3C//DTD SVG 20010904//EN"
 "http://www.w3.org/TR/2001/REC-SVG-20010904/DTD/svg10.dtd">
<svg version="1.0" xmlns="http://www.w3.org/2000/svg"
 width="414.000000pt" height="414.000000pt" viewBox="0 0 414.000000 414.000000"
 preserveAspectRatio="xMidYMid meet">
<metadata>
Created by potrace 1.14, written by Peter Selinger 2001-2017
</metadata>
<g transform="translate(0.000000,414.000000) scale(0.100000,-0.100000)"
fill="#000000" stroke="none">
<path d="M3220 4109 c-14 -11 -35 -29 -47 -40 -13 -10 -23 -16 -23 -13 0 2
-11 -5 -25 -18 -65 -60 -75 -68 -75 -61 0 4 -4 3 -8 -2 -4 -6 -29 -29 -57 -50
-27 -22 -52 -43 -53 -48 -2 -4 -8 -5 -13 -1 -5 3 -9 1 -9 -5 0 -5 -29 -31 -65
-57 -36 -26 -65 -51 -65 -55 0 -4 -8 -10 -17 -13 -10 -4 -34 -20 -53 -36 -49
-42 -50 -43 -106 -85 -27 -20 -52 -43 -56 -49 -4 -6 -8 -7 -8 -3 0 5 -6 2 -13
-5 -8 -7 -28 -24 -46 -38 -18 -14 -43 -34 -56 -45 -13 -11 -33 -27 -45 -35
-13 -8 -33 -25 -46 -38 -13 -13 -24 -20 -24 -17 0 4 -7 -1 -16 -9 -8 -9 -43
-37 -77 -63 -34 -26 -69 -55 -78 -65 -9 -10 -20 -18 -24 -18 -4 0 -30 -19 -59
-42 -28 -23 -53 -43 -55 -45 -3 -2 -6 -74 -8 -161 -4 -208 0 -190 -53 -198
-25 -3 -71 -14 -104 -25 -58 -20 -59 -20 -72 0 -8 11 -21 27 -29 35 -8 8 -15
17 -15 20 0 3 -12 22 -26 43 -14 21 -41 68 -60 106 -19 37 -38 67 -42 68 -4 0
-14 2 -22 3 -20 4 -108 17 -145 21 -16 2 -46 6 -65 10 -19 3 -53 8 -75 10 -22
3 -51 7 -65 10 -24 5 -88 14 -140 19 -14 2 -45 7 -70 11 -25 5 -56 9 -70 11
-14 1 -41 4 -60 7 -31 5 -75 11 -165 23 -36 5 -77 11 -130 19 -98 15 -112 17
-145 21 -19 2 -51 7 -70 10 -19 3 -46 7 -60 9 -45 4 -135 17 -155 22 -11 2
-40 6 -65 8 -25 2 -49 4 -55 5 -21 5 -40 0 -30 -8 6 -4 22 -23 35 -42 13 -19
31 -40 40 -47 8 -7 11 -13 7 -13 -4 0 2 -11 15 -24 13 -13 30 -33 38 -46 8
-12 22 -30 31 -39 8 -9 30 -36 49 -61 18 -25 41 -52 51 -61 10 -9 19 -22 21
-29 2 -7 15 -25 29 -39 14 -14 30 -33 35 -42 5 -9 21 -32 37 -50 15 -19 46
-59 69 -89 24 -30 45 -57 48 -60 3 -3 17 -21 30 -40 14 -19 32 -44 42 -55 37
-44 54 -65 72 -90 11 -14 27 -35 35 -45 9 -10 27 -34 41 -51 14 -18 52 -67 85
-108 65 -82 156 -199 166 -214 4 -5 78 -11 165 -13 211 -6 192 -1 199 -54 4
-25 16 -71 27 -103 11 -32 19 -59 17 -61 -54 -42 -132 -94 -202 -131 -48 -26
-87 -50 -88 -53 0 -4 -2 -16 -4 -27 -3 -11 -7 -40 -10 -65 -5 -43 -9 -71 -20
-135 -3 -16 -8 -55 -10 -85 -3 -30 -7 -62 -10 -70 -4 -16 -16 -89 -20 -130 -2
-14 -4 -25 -5 -25 -1 0 -3 -17 -5 -38 -2 -21 -6 -53 -9 -70 -5 -29 -9 -60 -21
-157 -3 -19 -7 -51 -10 -70 -3 -19 -7 -51 -10 -70 -3 -19 -6 -44 -9 -55 -2
-11 -7 -47 -11 -80 -4 -33 -9 -69 -11 -80 -11 -70 -15 -95 -19 -135 -3 -25
-10 -72 -16 -105 -6 -33 -12 -78 -14 -100 -2 -22 -6 -50 -9 -63 -6 -29 11 -29
46 1 14 12 37 30 50 39 43 32 70 53 115 91 25 21 58 46 72 55 14 9 41 31 59
49 19 18 38 30 43 27 5 -3 9 -1 9 4 0 5 24 28 53 50 30 22 60 47 68 55 8 7 26
20 39 27 14 7 31 22 38 32 7 10 18 16 23 13 5 -4 9 -2 9 4 0 5 19 23 43 40 23
16 56 42 74 58 17 15 41 35 53 43 21 14 36 27 86 68 12 9 32 24 44 32 13 8 33
25 45 37 13 12 26 19 29 16 3 -4 6 -2 6 3 0 6 29 32 65 59 36 27 65 54 65 59
0 5 3 7 6 3 3 -3 11 -1 18 4 42 36 64 54 85 70 24 19 25 24 28 172 3 173 5
197 13 197 44 3 96 15 143 32 l58 21 15 -21 c8 -12 21 -28 29 -36 8 -8 15 -17
15 -21 0 -8 43 -68 55 -77 6 -4 7 -8 2 -8 -4 0 3 -17 16 -38 12 -20 28 -49 35
-64 6 -16 16 -29 22 -29 41 -5 50 -7 53 -9 1 -1 11 -3 22 -4 93 -12 142 -19
160 -22 11 -2 43 -6 70 -9 28 -3 76 -10 108 -16 33 -6 73 -12 90 -14 18 -2 50
-6 72 -9 22 -3 54 -8 70 -10 17 -2 44 -7 60 -10 17 -3 55 -7 85 -10 30 -3 66
-8 79 -11 12 -2 42 -7 65 -10 22 -3 57 -7 76 -10 19 -3 53 -8 75 -10 22 -3 47
-7 55 -10 8 -2 40 -7 70 -10 77 -8 117 -14 176 -26 28 -5 55 -9 60 -8 5 1 11
0 14 -1 3 -1 19 -3 35 -5 17 -2 42 -6 58 -9 16 -3 27 0 27 6 0 13 -47 78 -70
95 -8 7 -11 13 -7 13 4 0 -2 11 -15 24 -31 33 -81 95 -92 115 -5 9 -12 18 -15
21 -3 3 -33 39 -66 80 -33 41 -63 77 -66 80 -3 3 -10 12 -15 21 -5 9 -21 32
-36 50 -78 96 -118 148 -118 153 0 3 -8 14 -17 24 -16 16 -35 40 -95 115 -10
12 -21 27 -25 32 -81 104 -119 151 -128 157 -5 4 -7 8 -2 8 4 0 -1 8 -10 18
-33 34 -63 72 -57 72 2 0 -7 12 -21 26 -14 14 -33 37 -43 52 -9 15 -25 36 -34
47 -10 11 -23 28 -31 39 -12 17 -31 19 -168 22 -85 2 -163 5 -174 6 -21 3 -32
26 -34 70 -1 15 -6 39 -13 55 -11 29 -13 33 -23 68 -6 25 69 81 199 151 47 25
87 50 87 55 2 10 5 25 9 37 1 4 2 11 1 15 -1 4 3 36 8 70 20 126 22 143 27
196 3 30 7 58 9 61 4 6 14 68 20 126 2 21 6 53 9 69 3 17 8 50 11 75 4 25 9
57 11 73 2 15 6 39 8 55 10 67 17 120 21 162 2 25 5 45 5 45 1 0 4 12 6 28 2
15 6 39 8 55 2 15 5 27 6 27 1 0 3 16 4 35 3 31 11 88 21 160 2 14 7 48 11 75
3 28 8 59 11 70 2 11 6 43 9 70 2 28 7 56 9 63 7 18 -17 14 -45 -9z m-1064
-1641 c3 -4 10 -6 15 -2 5 3 16 0 24 -6 8 -7 15 -9 15 -5 0 4 25 -7 56 -25
118 -66 186 -169 210 -315 8 -50 8 -50 0 -110 -4 -27 -12 -55 -18 -62 -6 -7
-7 -13 -3 -13 3 0 -8 -26 -26 -57 -37 -64 -122 -150 -156 -159 -13 -4 -23 -9
-23 -13 0 -9 -145 -41 -185 -41 -27 0 -72 5 -85 10 -3 1 -9 2 -14 1 -4 -1 -14
4 -22 10 -8 6 -14 8 -14 4 0 -15 -118 63 -158 105 -93 97 -139 281 -96 387 7
17 10 34 7 37 -4 3 0 14 8 23 8 10 22 33 32 51 18 32 107 126 107 113 0 -3 4
-1 8 5 10 16 92 52 133 59 18 3 36 8 38 11 9 8 141 1 147 -8z"/>
</g>
</svg>
